{
  "source": "C:\\Users\\Peter\\Desktop\\stuff\\MIUN\\quantitative_research\\video_compression\\videos\\BVI-HD\\BVI-HD_CDVL_videos\\ORIG\\Bookcase_1920x1080_60fps.mp4",
  "output": "C:\\Users\\Peter\\Desktop\\stuff\\MIUN\\quantitative_research\\video_compression\\compressed_videos\\BVI-HD\\h264\\8\\Bookcase_1920x1080_60fps_h264.mp4",
  "codec": "h264",
  "ok": "Input #0, mov,mp4,m4a,3gp,3g2,mj2, from 'C:\\Users\\Peter\\Desktop\\stuff\\MIUN\\quantitative_research\\video_compression\\videos\\BVI-HD\\BVI-HD_CDVL_videos\\ORIG\\Bookcase_1920x1080_60fps.mp4':\n  Metadata:\n    major_brand     : isom\n    minor_version   : 512\n    compatible_brands: isomiso2avc1mp41\n    encoder         : Lavf54.28.101\n  Duration: 00:00:05.00, start: 0.000000, bitrate: 336321 kb/s\n  Stream #0:0[0x1](und): Video: h264 (High 4:4:4 Predictive) (avc1 / 0x31637661), yuv420p(progressive), 1920x1080, 336316 kb/s, 60 fps, 60 tbr, 60 tbn (default)\n    Metadata:\n      handler_name    : VideoHandler\n      vendor_id       : [0][0][0][0]\n[out#0/mp4 @ 00000235634418c0] Codec AVOption b:a (set bitrate (in bits/s)) has not been used for any stream. The most likely reason is either wrong type (e.g. a video option with no video streams) or that it is a private option of some decoder which was not actually used for any stream.\nStream mapping:\n  Stream #0:0 -> #0:0 (h264 (native) -> h264 (libx264))\nPress [q] to stop, [?] for help\n[libx264 @ 000002356343cb80] using cpu capabilities: MMX2 SSE2Fast SSSE3 SSE4.2 AVX FMA3 BMI2 AVX2\n[libx264 @ 000002356343cb80] profile High, level 5.0, 4:2:0, 8-bit\n[libx264 @ 000002356343cb80] 264 - core 165 r3222 b35605a - H.264/MPEG-4 AVC codec - Copyleft 2003-2025 - http://www.videolan.org/x264.html - options: cabac=1 ref=5 deblock=1:0:0 analyse=0x3:0x113 me=hex subme=8 psy=1 psy_rd=1.00:0.00 mixed_ref=1 me_range=16 chroma_me=1 trellis=2 8x8dct=1 cqm=0 deadzone=21,11 fast_pskip=1 chroma_qp_offset=-2 threads=18 lookahead_threads=3 sliced_threads=0 nr=0 decimate=1 interlaced=0 bluray_compat=0 constrained_intra=0 bframes=3 b_pyramid=2 b_adapt=1 b_bias=0 direct=3 weightb=1 open_gop=0 weightp=2 keyint=250 keyint_min=25 scenecut=40 intra_refresh=0 rc_lookahead=50 rc=cbr mbtree=1 bitrate=8000 ratetol=1.0 qcomp=0.60 qpmin=0 qpmax=69 qpstep=4 vbv_maxrate=8000 vbv_bufsize=8000 nal_hrd=none filler=0 ip_ratio=1.40 aq=1:1.00\nOutput #0, mp4, to 'C:\\Users\\Peter\\Desktop\\stuff\\MIUN\\quantitative_research\\video_compression\\compressed_videos\\BVI-HD\\h264\\8\\Bookcase_1920x1080_60fps_h264.mp4':\n  Metadata:\n    major_brand     : isom\n    minor_version   : 512\n    compatible_brands: isomiso2avc1mp41\n    encoder         : Lavf62.3.100\n  Stream #0:0(und): Video: h264 (avc1 / 0x31637661), yuv420p(tv, progressive), 1920x1080, q=2-31, 8000 kb/s, 60 fps, 15360 tbn (default)\n    Metadata:\n      encoder         : Lavc62.11.100 libx264\n      handler_name    : VideoHandler\n      vendor_id       : [0][0][0][0]\n    Side data:\n      cpb: bitrate max/min/avg: 8000000/0/8000000 buffer size: 8000000 vbv_delay: N/A\nframe=    0 fps=0.0 q=0.0 size=       0KiB time=N/A bitrate=N/A speed=N/A elapsed=0:00:00.52    \nframe=    0 fps=0.0 q=0.0 size=       0KiB time=N/A bitrate=N/A speed=N/A elapsed=0:00:01.12    \nframe=   26 fps= 15 q=26.0 size=     256KiB time=00:00:00.40 bitrate=5243.8kbits/s speed=0.227x elapsed=0:00:01.76    \nframe=   44 fps= 19 q=31.0 size=     512KiB time=00:00:00.70 bitrate=5992.4kbits/s speed=0.302x elapsed=0:00:02.31    \nframe=   67 fps= 24 q=27.0 size=     768KiB time=00:00:01.08 bitrate=5807.9kbits/s speed=0.381x elapsed=0:00:02.84    \nframe=   95 fps= 28 q=28.0 size=    1024KiB time=00:00:01.53 bitrate=5471.1kbits/s speed=0.456x elapsed=0:00:03.36    \nframe=  122 fps= 31 q=29.0 size=    1536KiB time=00:00:01.88 bitrate=6681.4kbits/s speed=0.477x elapsed=0:00:03.94    \nframe=  148 fps= 32 q=29.0 size=    1792KiB time=00:00:02.41 bitrate=6074.7kbits/s speed=0.528x elapsed=0:00:04.57    \nframe=  168 fps= 33 q=28.0 size=    2048KiB time=00:00:02.76 bitrate=6064.2kbits/s speed=0.537x elapsed=0:00:05.14    \nframe=  191 fps= 34 q=29.0 size=    2560KiB time=00:00:03.08 bitrate=6801.7kbits/s speed=0.542x elapsed=0:00:05.69    \nframe=  214 fps= 34 q=29.0 size=    2816KiB time=00:00:03.53 bitrate=6529.0kbits/s speed=0.565x elapsed=0:00:06.25    \nframe=  233 fps= 34 q=29.0 size=    3072KiB time=00:00:03.85 bitrate=6536.7kbits/s speed=0.568x elapsed=0:00:06.77    \nframe=  254 fps= 35 q=29.0 size=    3584KiB time=00:00:04.20 bitrate=6990.6kbits/s speed=0.576x elapsed=0:00:07.29    \nframe=  278 fps= 36 q=30.0 size=    3840KiB time=00:00:04.53 bitrate=6939.2kbits/s speed=0.58x elapsed=0:00:07.81    \n[mp4 @ 000002356344d700] Starting second pass: moving the moov atom to the beginning of the file\n[out#0/mp4 @ 00000235634418c0] video:4485KiB audio:0KiB subtitle:0KiB other streams:0KiB global headers:0KiB muxing overhead: 0.093695%\nframe=  300 fps= 36 q=-1.0 Lsize=    4489KiB time=00:00:04.96 bitrate=7404.3kbits/s speed=0.595x elapsed=0:00:08.34    \n[libx264 @ 000002356343cb80] frame I:2     Avg QP:24.57  size:100606\n[libx264 @ 000002356343cb80] frame P:93    Avg QP:26.38  size: 38395\n[libx264 @ 000002356343cb80] frame B:205   Avg QP:25.44  size:  3999\n[libx264 @ 000002356343cb80] consecutive B-frames:  2.3% 11.3% 25.0% 61.3%\n[libx264 @ 000002356343cb80] mb I  I16..4: 14.5% 82.7%  2.8%\n[libx264 @ 000002356343cb80] mb P  I16..4:  8.8% 20.3%  0.9%  P16..4: 36.2% 10.3%  3.6%  0.0%  0.0%    skip:19.9%\n[libx264 @ 000002356343cb80] mb B  I16..4:  1.1%  1.4%  0.0%  B16..8: 28.9%  1.0%  0.1%  direct: 0.5%  skip:67.1%  L0:36.1% L1:62.3% BI: 1.7%\n[libx264 @ 000002356343cb80] 8x8 transform intra:66.9% inter:82.3%\n[libx264 @ 000002356343cb80] direct mvs  spatial:95.6% temporal:4.4%\n[libx264 @ 000002356343cb80] coded y,uvDC,uvAC intra: 42.9% 56.9% 15.3% inter: 7.5% 10.4% 0.9%\n[libx264 @ 000002356343cb80] i16 v,h,dc,p: 58% 29%  5%  8%\n[libx264 @ 000002356343cb80] i8 v,h,dc,ddl,ddr,vr,hd,vl,hu: 41% 18% 20%  2%  3%  4%  4%  5%  4%\n[libx264 @ 000002356343cb80] i4 v,h,dc,ddl,ddr,vr,hd,vl,hu: 37% 16%  4%  4% 11% 10%  9%  5%  5%\n[libx264 @ 000002356343cb80] i8c dc,h,v,p: 26% 28% 37%  9%\n[libx264 @ 000002356343cb80] Weighted P-Frames: Y:0.0% UV:0.0%\n[libx264 @ 000002356343cb80] ref P L0: 73.7% 20.4%  4.3%  0.8%  0.8%  0.1%\n[libx264 @ 000002356343cb80] ref B L0: 95.2%  3.6%  1.0%  0.2%\n[libx264 @ 000002356343cb80] ref B L1: 99.2%  0.8%\n[libx264 @ 000002356343cb80] kb/s:7346.85\n",
  "seconds": 8.550282955169678,
  "probe_out": {}
}